<?xml version="1.0" encoding="UTF-8" standalone="no"?>
<svg
   xmlns:dc="http://purl.org/dc/elements/1.1/"
   xmlns:cc="http://creativecommons.org/ns#"
   xmlns:rdf="http://www.w3.org/1999/02/22-rdf-syntax-ns#"
   xmlns:svg="http://www.w3.org/2000/svg"
   xmlns="http://www.w3.org/2000/svg"
   xmlns:sodipodi="http://sodipodi.sourceforge.net/DTD/sodipodi-0.dtd"
   xmlns:inkscape="http://www.inkscape.org/namespaces/inkscape"
   height="100"
   width="100"
   id="svg3033"
   version="1.1"
   inkscape:version="0.48.4 r9939"
   sodipodi:docname="unknown.svg">
  <metadata
     id="metadata3041">
    <rdf:RDF>
      <cc:Work
         rdf:about="">
        <dc:format>image/svg+xml</dc:format>
        <dc:type
           rdf:resource="http://purl.org/dc/dcmitype/StillImage" />
      </cc:Work>
    </rdf:RDF>
  </metadata>
  <defs
     id="defs3039" />
  <sodipodi:namedview
     pagecolor="#ffffff"
     bordercolor="#666666"
     borderopacity="1"
     objecttolerance="10"
     gridtolerance="10"
     guidetolerance="10"
     inkscape:pageopacity="0"
     inkscape:pageshadow="2"
     inkscape:window-width="1178"
     inkscape:window-height="857"
     id="namedview3037"
     showgrid="false"
     fit-margin-top="0"
     fit-margin-left="0"
     fit-margin-right="0"
     fit-margin-bottom="0"
     inkscape:zoom="5.33"
     inkscape:cx="47.10319"
     inkscape:cy="42.410881"
     inkscape:window-x="1945"
     inkscape:window-y="142"
     inkscape:window-maximized="0"
     inkscape:current-layer="svg3033" />
  <g
     id="g4">
    <g
       id="g6">
      <path
         style="fill-rule:evenodd"
         inkscape:connector-curvature="0"
         clip-rule="evenodd"
         d="M 50,0 C 22.386,0 0,22.385 0,50 0,77.615 22.386,100 50,100 77.615,100 100,77.615 100,50 100,22.385 77.615,0 50,0 z m 0,91.669 C 26.988,91.669 8.333,73.014 8.333,50.001 8.333,26.988 26.989,8.334 50,8.334 c 23.013,0 41.667,18.654 41.667,41.667 0,23.013 -18.653,41.668 -41.667,41.668 z M 34.896,42.709 c 3.739,0 6.771,-3.031 6.771,-6.771 0,-3.74 -3.032,-6.772 -6.771,-6.772 -3.74,0 -6.771,3.032 -6.771,6.772 0,3.74 3.032,6.771 6.771,6.771 z m 30.21,-13.542 c -3.74,0 -6.772,3.032 -6.772,6.772 0,3.74 3.032,6.771 6.772,6.771 3.74,0 6.771,-3.031 6.771,-6.771 0,-3.741 -3.03,-6.772 -6.771,-6.772 z M 28.125,72.658 H 71.876 V 64.325 H 28.125 v 8.333 z"
         id="path8" />
    </g>
  </g>
</svg>
